<?xml version="1.0" encoding="utf-8"?>
<svg version="1.1" width="1000" height="1000" viewBox="-4.936 47.67 721.882 278.854" xmlns="http://www.w3.org/2000/svg">
  <g transform="matrix(0.7, 0, 0, 0.7, 3.684893, 88.152946)">
    <svg viewBox="0 0 396 100" data-background-color="#f9f9f9" preserveAspectRatio="xMidYMid meet" height="252" width="1000" xmlns="http://www.w3.org/2000/svg">
      <g id="tight-bounds" transform="matrix(1,0,0,1,0.2400000000000091,-0.24997854976422218)">
        <svg viewBox="0 0 395.52 100.49995709952843" height="100.49995709952843" width="395.52">
          <g>
            <svg viewBox="0 0 547.4373957324799 139.10152403365646" height="100.49995709952843" width="395.52">
              <g transform="matrix(1,0,0,1,151.91739573247997,19.224595579181177)">
                <svg viewBox="0 0 395.52 100.6523328752941" height="100.6523328752941" width="395.52">
                  <g id="textblocktransform">
                    <svg viewBox="0 0 395.52 100.6523328752941" height="100.6523328752941" width="395.52" id="textblock">
                      <g>
                        <svg viewBox="0 0 395.52 54.28705882352941" height="54.28705882352941" width="395.52">
                          <g transform="matrix(1,0,0,1,0,0)">
                            <svg width="395.52" viewBox="1.8 -35.55 262.63 36.05" height="54.28705882352941" data-palette-color="#030303">
                              <path d="M2.3-35L31.8-35 32.3-22.45 31.35-22.45Q29.15-29.1 27.45-31.53 25.75-33.95 22.55-33.95L22.55-33.95 21.95-33.95 21.95-1.05 26.2-1.05 26.2 0 7.95 0 7.95-1.05 12.2-1.05 12.2-33.95 11.55-33.95Q8.35-33.95 6.6-31.43 4.85-28.9 2.75-22.45L2.75-22.45 1.8-22.45 2.3-35ZM50.55-17.7L50.55-17.7 47.9-17.7 47.9-0.95 51.15-0.95 51.15 0 34.9 0 34.9-0.95 38.15-0.95 38.15-34.05 34.9-34.05 34.9-35 50-35Q56.5-35 59.22-34.33 61.95-33.65 63.05-32.7L63.05-32.7Q65.45-30.75 65.45-26.5 65.45-22.25 63.35-20.43 61.25-18.6 56.95-18.25L56.95-18.25 56.95-18.1Q61-17.55 62.6-15.7 64.2-13.85 64.2-9.5L64.2-9.5 64.2-6.85Q64.2-4.25 64.47-3.35 64.75-2.45 65.65-2.45 66.55-2.45 67.07-3.28 67.6-4.1 68.05-6.75L68.05-6.75 68.9-6.65Q68.35-2.4 66.97-0.95 65.6 0.5 61.5 0.5 57.4 0.5 55.67-1.43 53.95-3.35 53.95-8.65L53.95-8.65 53.95-12.3Q53.95-15.1 53.22-16.4 52.5-17.7 50.55-17.7ZM49.55-34.05L47.9-34.05 47.9-18.65 49.5-18.65Q52.35-18.65 53.72-20.4 55.1-22.15 55.1-26.1L55.1-26.1 55.1-27.55Q55.1-31.5 53.77-32.77 52.45-34.05 49.55-34.05L49.55-34.05ZM82.5-10.65Q82.5-6.05 84.07-3.6 85.65-1.15 89.75-1.15 93.85-1.15 96.05-3.7 98.25-6.25 98.25-11.45L98.25-11.45 98.25-34.05 95-34.05 95-35 102.3-35 102.3-34.05 99.55-34.05 99.55-11.8Q99.55-5.6 96.8-2.55 94.05 0.5 87.07 0.5 80.1 0.5 76.42-2.4 72.75-5.3 72.75-12.35L72.75-12.35 72.75-34.05 70-34.05 70-35 85.75-35 85.75-34.05 82.5-34.05 82.5-10.65ZM104.14-33.9L104.14-35 130.14-35 130.64-25.1 129.74-25.1Q127.64-30.15 125.34-32.02 123.04-33.9 118.59-33.9L118.59-33.9 116.84-33.9 116.84-18.45 118.54-18.45Q120.89-18.45 122.49-20.23 124.09-22 124.74-25L124.74-25 125.49-25 125.49-10.2 124.64-10.2Q123.74-13.95 122.22-15.55 120.69-17.15 118.04-17.15L118.04-17.15 116.84-17.15 116.84-1.1 118.74-1.1Q123.34-1.1 126.57-3.85 129.79-6.6 130.99-10.9L130.99-10.9 131.99-10.9 131.59 0 104.14 0 104.14-1.1 107.09-1.1 107.09-33.9 104.14-33.9ZM152.54-0.5L152.54-0.5Q154.99-0.5 155.67-1.4 156.34-2.3 156.34-4.45L156.34-4.45 156.34-14.15 153.14-14.15 153.14-15.25 167.54-15.25 167.54-14.15 165.59-14.15 165.59-0.05 164.84-0.05Q163.94-1.3 162.29-1.3L162.29-1.3Q161.59-1.3 158.12-0.4 154.64 0.5 152.19 0.5L152.19 0.5Q144.04 0.5 139.57-3.9 135.09-8.3 135.09-17.13 135.09-25.95 139.77-30.75 144.44-35.55 152.34-35.55L152.34-35.55Q155.39-35.55 158.47-34.77 161.54-34 162.04-34 162.54-34 162.79-34.23 163.04-34.45 163.34-35L163.34-35 163.89-35 164.29-24.15 163.39-24.15Q160.94-29 158.47-31.78 155.99-34.55 152.94-34.55L152.94-34.55Q145.29-34.55 145.29-19.6L145.29-19.6 145.29-15.65Q145.29-8.15 147.17-4.33 149.04-0.5 152.54-0.5ZM185.59-17.7L185.59-17.7 182.94-17.7 182.94-0.95 186.19-0.95 186.19 0 169.94 0 169.94-0.95 173.19-0.95 173.19-34.05 169.94-34.05 169.94-35 185.04-35Q191.54-35 194.26-34.33 196.99-33.65 198.09-32.7L198.09-32.7Q200.49-30.75 200.49-26.5 200.49-22.25 198.39-20.43 196.29-18.6 191.99-18.25L191.99-18.25 191.99-18.1Q196.04-17.55 197.64-15.7 199.24-13.85 199.24-9.5L199.24-9.5 199.24-6.85Q199.24-4.25 199.51-3.35 199.79-2.45 200.69-2.45 201.59-2.45 202.11-3.28 202.64-4.1 203.09-6.75L203.09-6.75 203.94-6.65Q203.39-2.4 202.01-0.95 200.64 0.5 196.54 0.5 192.44 0.5 190.71-1.43 188.99-3.35 188.99-8.65L188.99-8.65 188.99-12.3Q188.99-15.1 188.26-16.4 187.54-17.7 185.59-17.7ZM184.59-34.05L182.94-34.05 182.94-18.65 184.54-18.65Q187.39-18.65 188.76-20.4 190.14-22.15 190.14-26.1L190.14-26.1 190.14-27.55Q190.14-31.5 188.81-32.77 187.49-34.05 184.59-34.05L184.59-34.05ZM206.04-33.9L206.04-35 232.04-35 232.54-25.1 231.64-25.1Q229.54-30.15 227.24-32.02 224.94-33.9 220.49-33.9L220.49-33.9 218.74-33.9 218.74-18.45 220.44-18.45Q222.79-18.45 224.39-20.23 225.99-22 226.64-25L226.64-25 227.39-25 227.39-10.2 226.54-10.2Q225.64-13.95 224.11-15.55 222.59-17.15 219.94-17.15L219.94-17.15 218.74-17.15 218.74-1.1 220.64-1.1Q225.24-1.1 228.46-3.85 231.69-6.6 232.89-10.9L232.89-10.9 233.89-10.9 233.49 0 206.04 0 206.04-1.1 208.99-1.1 208.99-33.9 206.04-33.9ZM245.73-34.2L252.53-18.55 259.63-34.2 254.58-34.2 254.58-35 264.43-35 264.43-34.2 261.13-34.2 253.58-17.5 253.58-0.95 256.63-0.95 256.63 0 240.78 0 240.78-0.95 243.83-0.95 243.83-16.55 235.33-34.2 232.98-34.2 232.98-35 248.98-35 248.98-34.2 245.73-34.2Z" opacity="1" transform="matrix(1,0,0,1,0,0)" fill="#000000" class="undefined-text-0" data-fill-palette-color="primary" id="text-0"/>
                            </svg>
                          </g>
                        </svg>
                      </g>
                      <g transform="matrix(1,0,0,1,0,67.10293052235293)">
                        <svg viewBox="0 0 159.86028357154427 33.54940235294117" height="33.54940235294117" width="159.86028357154427">
                          <g transform="matrix(1,0,0,1,0,0)">
                            <svg width="159.86028357154427" viewBox="-0.3 -40.95 259.43 54.45" height="33.54940235294117" data-palette-color="#030303">
                              <path d="M-0.3 6.85Q1.9 6.2 3.65 4.53 5.4 2.85 6.2 0.4L6.2 0.4Q6.85-1.5 7.05-4.03 7.25-6.55 7.25-11.8L7.25-11.8 7.25-34 2.45-34.65 2.45-37.15 17.15-37.15 17.15-34.65 12.6-34 12.6-13.75 12.6-11.4Q12.6-7.45 12.5-5.05 12.4-2.65 12.05-0.95L12.05-0.95Q11.15 3.05 8.1 5.65 5.05 8.25 1.05 8.95L1.05 8.95-0.3 6.85ZM44.05 0.45Q42.65 0.45 41.97-0.1 41.3-0.65 41.3-1.9L41.3-1.9 41.3-3.6Q39.65-1.95 37.17-0.7 34.7 0.55 32.2 0.55L32.2 0.55Q27.55 0.55 25.6-1.95 23.65-4.45 23.65-10.2L23.65-10.2 23.65-24.7 20.85-25.5 20.85-27.7 27.85-28.35 27.9-28.35 28.85-27.75 28.85-10.6Q28.85-7.7 29.27-6.08 29.7-4.45 30.77-3.68 31.85-2.9 33.9-2.9L33.9-2.9Q35.9-2.9 37.65-3.75 39.4-4.6 40.7-5.75L40.7-5.75 40.7-24.7 37.1-25.5 37.1-27.7 44.7-28.35 44.75-28.35 45.9-27.75 45.9-2.55 48.9-2.55 48.85-0.3Q47.45 0.05 46.42 0.25 45.4 0.45 44.05 0.45L44.05 0.45ZM56.65-7.9L57.55-4Q58.05-3.25 59.67-2.65 61.3-2.05 63.1-2.05L63.1-2.05Q65.95-2.05 67.3-3.15 68.65-4.25 68.65-6.2L68.65-6.2Q68.65-7.55 67.8-8.55 66.95-9.55 65.42-10.33 63.9-11.1 61.05-12.2L61.05-12.2Q57.2-13.65 55.42-15.68 53.65-17.7 53.65-21L53.65-21Q53.65-23.2 54.97-24.85 56.3-26.5 58.62-27.43 60.95-28.35 63.8-28.35L63.8-28.35Q66.09-28.35 67.82-28 69.55-27.65 70.59-27.3 71.65-26.95 72-26.85L72-26.85 72-20.65 68.95-20.65 67.95-24.35Q67.65-24.95 66.34-25.38 65.05-25.8 63.45-25.8L63.45-25.8Q61.2-25.8 59.82-24.8 58.45-23.8 58.45-22.1L58.45-22.1Q58.45-20.6 59.17-19.63 59.9-18.65 61-18.05 62.1-17.45 64-16.65L64-16.65 65-16.25Q67.8-15.15 69.55-14.15 71.3-13.15 72.47-11.53 73.65-9.9 73.65-7.55L73.65-7.55Q73.65-3.85 70.77-1.65 67.9 0.55 62.9 0.55L62.9 0.55Q60.45 0.55 57.77-0.13 55.1-0.8 53.4-1.5L53.4-1.5 53.4-7.9 56.65-7.9ZM86.69 0.5Q83.84 0.5 82.44-0.8 81.04-2.1 81.04-5.25L81.04-5.25 81.04-24.45 77.44-24.45 77.44-26.7Q77.69-26.75 78.84-27.05 79.99-27.35 80.39-27.6L80.39-27.6Q81.19-28.05 81.64-29.4L81.64-29.4Q82.04-30.35 82.59-32.45 83.14-34.55 83.24-34.95L83.24-34.95 86.19-34.95 86.29-27.75 94.64-27.75 94.64-24.45 86.29-24.45 86.29-9.1Q86.29-6.25 86.47-5.1 86.64-3.95 87.22-3.6 87.79-3.25 89.19-3.25L89.19-3.25Q90.54-3.25 92.17-3.6 93.79-3.95 94.69-4.35L94.69-4.35 95.44-2.1Q94.24-1.2 91.57-0.35 88.89 0.5 86.69 0.5L86.69 0.5ZM110.34-7.5Q110.34-12.2 115.04-14.43 119.74-16.65 126.94-16.8L126.94-16.8 126.94-18.2Q126.94-20.55 126.44-21.9 125.94-23.25 124.71-23.88 123.49-24.5 121.24-24.5L121.24-24.5Q118.69-24.5 116.66-23.78 114.64-23.05 112.64-22L112.64-22 111.39-24.6Q112.04-25.15 113.79-26.05 115.54-26.95 117.84-27.65 120.14-28.35 122.44-28.35L122.44-28.35Q125.99-28.35 128.06-27.38 130.14-26.4 131.04-24.25 131.94-22.1 131.94-18.5L131.94-18.5 131.94-2.45 134.89-2.45 134.89-0.25Q133.89 0 132.36 0.25 130.84 0.5 129.69 0.5L129.69 0.5Q128.29 0.5 127.79 0.08 127.29-0.35 127.29-1.8L127.29-1.8 127.29-3.45Q125.79-1.95 123.61-0.7 121.44 0.55 118.69 0.55L118.69 0.55Q115.09 0.55 112.71-1.53 110.34-3.6 110.34-7.5L110.34-7.5ZM120.84-2.85Q122.14-2.85 123.84-3.65 125.54-4.45 126.94-5.55L126.94-5.55 126.94-14.15Q121.49-14.15 118.71-12.48 115.94-10.8 115.94-8.1L115.94-8.1Q115.94-5.4 117.26-4.13 118.59-2.85 120.84-2.85L120.84-2.85ZM154.43-2.95L154.43-34.05 150.33-34.65 150.33-37.15 157.08-37.15Q158.78-37.15 161.38-37.35L161.38-37.35Q163.78-37.55 164.93-37.55L164.93-37.55Q171.83-37.55 174.81-35.4 177.78-33.25 177.78-29.1L177.78-29.1Q177.78-25.55 175.73-23 173.68-20.45 170.13-19.8L170.13-19.8Q174.93-19.9 177.68-17.55 180.43-15.2 180.43-11.15L180.43-11.15Q180.43-6.1 176.86-2.9 173.28 0.3 165.03 0.3L165.03 0.3Q163.23 0.3 161.58 0.15L161.58 0.15Q157.68 0 156.93 0L156.93 0 150.28 0 150.28-2.45 154.43-2.95ZM159.73-20.75Q160.43-20.7 162.58-20.7L162.58-20.7 165.33-20.7Q168.83-20.7 170.63-22.65 172.43-24.6 172.43-28.2L172.43-28.2Q172.43-31.7 170.63-33.33 168.83-34.95 164.48-34.95L164.48-34.95Q162.68-34.95 160.78-34.75L160.78-34.75 159.73-34.65 159.73-20.75ZM159.73-2.8Q160.88-2.4 164.93-2.4L164.93-2.4Q169.98-2.4 172.26-4.48 174.53-6.55 174.53-10.45L174.53-10.45Q174.53-14.3 172.56-16.05 170.58-17.8 166.18-17.8L166.18-17.8Q161.08-17.8 159.73-17.7L159.73-17.7 159.73-2.8ZM188.13-2.9L188.13-37.3 184.08-37.85 184.08-40 192.13-40.95 192.23-40.95 193.33-40.2 193.33-2.85 197.58-2.45 197.58 0 184.08 0 184.08-2.45 188.13-2.9ZM201.13-13.95Q201.13-18.45 202.98-21.75 204.83-25.05 207.85-26.78 210.88-28.5 214.33-28.5L214.33-28.5Q220.63-28.5 223.8-24.5 226.98-20.5 226.98-14L226.98-14Q226.98-9.45 225.13-6.15 223.28-2.85 220.25-1.15 217.23 0.55 213.78 0.55L213.78 0.55Q207.48 0.55 204.3-3.45 201.13-7.45 201.13-13.95L201.13-13.95ZM214.08-2.3Q217.53-2.3 219.38-5.15 221.23-8 221.23-13.6L221.23-13.6Q221.23-19.15 219.53-22.4 217.83-25.65 214.08-25.65L214.08-25.65Q210.63-25.65 208.75-22.8 206.88-19.95 206.88-14.35L206.88-14.35Q206.88-8.8 208.63-5.55 210.38-2.3 214.08-2.3L214.08-2.3ZM243.48 13.5Q237.08 13.5 234.2 11.48 231.33 9.45 231.33 5.9L231.33 5.9Q231.33 3.7 232.7 1.85 234.08 0 235.98-0.95L235.98-0.95Q233.68-2.25 233.68-5.15L233.68-5.15Q233.68-6.95 234.73-8.55 235.78-10.15 237.48-11L237.48-11Q234.98-12.1 233.65-14.15 232.33-16.2 232.33-19L232.33-19Q232.33-21.9 233.95-24.05 235.58-26.2 238.25-27.35 240.93-28.5 243.93-28.5L243.93-28.5Q248.98-28.5 251.83-26.4L251.83-26.4Q252.58-27.15 254.13-27.85 255.68-28.55 257.43-28.55L257.43-28.55 259.13-28.55 259.13-24.15 253.63-24.15Q254.83-22.3 254.83-19.85L254.83-19.85Q254.83-16.9 253.35-14.63 251.88-12.35 249.25-11.1 246.63-9.85 243.33-9.85L243.33-9.85Q241.18-9.85 239.48-10.3L239.48-10.3Q238.78-9.6 238.33-8.75 237.88-7.9 237.88-7.1L237.88-7.1Q237.88-5.3 239.08-4.63 240.28-3.95 243.38-3.95L243.38-3.95 249.03-3.95Q253.88-3.95 256.23-2.1 258.58-0.25 258.58 3.15L258.58 3.15Q258.58 6 256.53 8.38 254.48 10.75 251 12.13 247.53 13.5 243.48 13.5L243.48 13.5ZM243.83-12.6Q249.53-12.6 249.53-19.35L249.53-19.35Q249.53-22.7 248.05-24.28 246.58-25.85 243.63-25.85L243.63-25.85Q240.88-25.85 239.28-24.33 237.68-22.8 237.68-19.45L237.68-19.45Q237.68-16.3 239.2-14.45 240.73-12.6 243.83-12.6L243.83-12.6ZM243.93 10.6Q246.38 10.6 248.55 9.88 250.73 9.15 252.08 7.73 253.43 6.3 253.43 4.4L253.43 4.4Q253.43 2.15 252.23 1.13 251.03 0.1 247.58 0.1L247.58 0.1 241.68 0.1Q239.68 0.1 238.53-0.15L238.53-0.15Q236.48 2.1 236.48 4.9L236.48 4.9Q236.48 7.7 238.18 9.15 239.88 10.6 243.93 10.6L243.93 10.6Z" opacity="1" transform="matrix(1,0,0,1,0,0)" fill="#000000" class="undefined-text-1" data-fill-palette-color="secondary" id="text-1"/>
                            </svg>
                          </g>
                        </svg>
                      </g>
                    </svg>
                  </g>
                </svg>
              </g>
              <g>
                <svg viewBox="0 0 139.10152403365646 139.10152403365646" height="139.10152403365646" width="139.10152403365646">
                  <g data-palette-color="#030303">
                    <rect width="38.021083235866094" height="139.10152403365646" fill="#000000" stroke="transparent" data-fill-palette-color="accent" x="0" fill-opacity="0.5"/>
                    <rect width="38.021083235866094" height="139.10152403365646" fill="#000000" stroke="transparent" data-fill-palette-color="accent" x="46.36717467788548" fill-opacity="0.75"/>
                    <rect width="38.021083235866094" height="139.10152403365646" fill="#000000" stroke="transparent" data-fill-palette-color="accent" x="92.73434935577096" fill-opacity="1"/>
                  </g>
                </svg>
              </g>
            </svg>
          </g>
        </svg>
        <rect width="395.52" height="100.49995709952843" fill="none" stroke="none" visibility="hidden"/>
      </g>
    </svg>
  </g>
</svg>